<?xml version="1.0" encoding="iso-8859-1"?>
<!-- Generator: Adobe Illustrator 18.0.0, SVG Export Plug-In . SVG Version: 6.00 Build 0)  -->
<!DOCTYPE svg PUBLIC "-//W3C//DTD SVG 1.1//EN" "http://www.w3.org/Graphics/SVG/1.1/DTD/svg11.dtd">
<svg version="1.1" id="Capa_1" xmlns="http://www.w3.org/2000/svg" xmlns:xlink="http://www.w3.org/1999/xlink" x="0px" y="0px"
	 viewBox="0 0 379.986 379.986" style="enable-background:new 0 0 379.986 379.986;" xml:space="preserve">
<g>
	<path d="M374.642,215.201c-4.511-8.01-11.484-14.148-19.657-17.71c4.317-13.216,6.658-27.317,6.658-41.957
		c0-24.757-6.675-47.982-18.311-67.98c-3.356,6.843-7.43,13.887-11.785,20.761l-1.92,2.994c-3.729,5.74-7.611,11.318-11.382,16.511
		c14.919,8.312,23.398,18.241,23.398,27.715c0,14.289-19.268,29.615-50.86,38.86c1.699-11.934,2.61-24.438,2.683-37.215
		c-1.106,0.413-2.285,0.643-3.494,0.643c-2.961,0-5.771-1.313-7.671-3.584c-2.262-2.705-5.433-6.567-9.116-11.245
		c0.189,4.098,0.295,8.276,0.295,12.542c0,15.8-1.347,30.486-3.692,43.73c-13.243,2.345-27.929,3.692-43.729,3.692
		c-15.801,0-30.488-1.347-43.732-3.692c-2.345-13.243-3.692-27.93-3.692-43.73s1.347-30.486,3.692-43.729
		c13.244-2.346,27.931-3.692,43.732-3.692c7.898,0,15.519,0.336,22.82,0.966c-4.373-6.856-8.483-13.898-11.89-20.752
		c-3.618-0.138-7.262-0.215-10.93-0.215c-13.351,0-26.415,0.925-38.862,2.698c9.245-31.593,24.571-50.861,38.86-50.862h0
		c1.447,0,2.905,0.207,4.366,0.596c2.16-7.249,5.604-13.946,10.075-19.826c-4.746-0.505-9.563-0.77-14.44-0.77h-0.001h-0.001h-0.001
		C151.295,19.949,90.471,80.772,90.471,155.534c0,18.238,3.633,35.64,10.194,51.537c-4.347,2.435-8.721,5.321-13.056,8.752
		c-0.028,0.022-0.056,0.044-0.083,0.066L3.711,283.689c-4.197,3.395-4.942,9.507-1.684,13.811l52.662,69.563
		c1.609,2.125,4.001,3.521,6.644,3.875c0.443,0.06,0.887,0.089,1.329,0.089c2.195,0,4.343-0.723,6.101-2.077l57.203-44.046
		l81.854,19.344c3.131,0.739,6.349,1.114,9.565,1.114c0.001,0,0,0,0.001,0c7.139,0,14.198-1.852,20.41-5.352l121.016-68.154
		C378.794,260.601,385.896,235.187,374.642,215.201z M264.918,220.258c-1.137,3.885-2.369,7.573-3.677,11.07l-11.749,6.616
		c-2.226-5.874-5.873-11.126-10.578-15.287C247.794,222.258,256.499,221.457,264.918,220.258z M184.409,47.715
		c-2.865,4.457-5.559,9.412-8.05,14.86c-4.433,9.695-8.082,20.606-10.902,32.357c-11.752,2.82-22.664,6.47-32.359,10.902
		c-5.448,2.491-10.402,5.185-14.859,8.049C129.978,83.6,154.124,59.454,184.409,47.715z M161.333,116.674
		c-1.772,12.447-2.698,25.509-2.698,38.86s0.925,26.413,2.697,38.86c-31.594-9.245-50.861-24.571-50.861-38.86
		C110.471,141.245,129.739,125.919,161.333,116.674z M348.998,254.428l-121.018,68.156c-4.677,2.636-10.33,3.434-15.56,2.199
		l-86.484-20.438c-2.93-0.691-6.016-0.028-8.401,1.809L64.55,346.952l-40.732-53.804l76.248-61.678
		c17.359-13.719,35.487-16.599,47.644-16.599c8.872,0,14.961,1.54,16.615,2.012c20.666,5.895,53.467,16.604,53.796,16.711
		c0.128,0.042,0.257,0.081,0.388,0.118c8.447,2.386,14.084,10.453,13.414,19.186c-0.057,0.504-1.002,8.143-6.605,12.074
		c-4.415,3.096-11.16,3.529-20.052,1.286l-44.281-13.749c-5.276-1.64-10.878,1.311-12.516,6.585
		c-1.638,5.274,1.311,10.878,6.585,12.516l44.529,13.826c0.16,0.049,0.32,0.095,0.482,0.136c5.451,1.398,10.559,2.096,15.308,2.096
		c8.39,0,15.658-2.179,21.714-6.524c8.714-6.253,12.311-15.203,13.784-21.022l76.933-43.324c3.235-1.822,6.89-2.786,10.57-2.786
		c7.8,0,15.02,4.216,18.842,11.002C363.058,235.391,359.372,248.586,348.998,254.428z M231.921,252.929
		c-0.001,0.008,0,0.015-0.001,0.023h-0.001L231.921,252.929z"/>
	<path d="M286.055,140.343c0.911,1.122,2.278,1.773,3.723,1.773c1.445,0,2.813-0.651,3.723-1.773
		c10.856-13.372,46.278-58.763,46.278-81.385c0-27.569-22.43-49.997-50-49.997c-27.57,0-50,22.429-50,49.997
		C239.779,81.594,275.199,126.974,286.055,140.343z M289.779,29.712c14.537,0,26.363,11.825,26.363,26.36
		c0,14.538-11.826,26.365-26.363,26.365c-14.537,0-26.362-11.827-26.362-26.365C263.416,41.537,275.242,29.712,289.779,29.712z"/>
</g>
<g>
</g>
<g>
</g>
<g>
</g>
<g>
</g>
<g>
</g>
<g>
</g>
<g>
</g>
<g>
</g>
<g>
</g>
<g>
</g>
<g>
</g>
<g>
</g>
<g>
</g>
<g>
</g>
<g>
</g>
</svg>
