<?xml version="1.0" encoding="iso-8859-1"?>
<!-- Generator: Adobe Illustrator 19.0.0, SVG Export Plug-In . SVG Version: 6.00 Build 0)  -->
<svg version="1.1" id="Layer_1" xmlns="http://www.w3.org/2000/svg" xmlns:xlink="http://www.w3.org/1999/xlink" x="0px" y="0px"
	 viewBox="0 0 512 512" style="enable-background:new 0 0 512 512;" xml:space="preserve">
<polygon style="fill:#F64B4A;" points="327.229,430.111 256.003,512 184.778,430.111 226.223,215.075 231.269,188.923 
	255.492,165.363 280.726,188.923 285.773,215.075 "/>
<polygon style="fill:#E84242;" points="285.773,215.075 226.223,215.075 231.269,188.923 255.492,165.363 280.726,188.923 "/>
<polygon style="fill:#F64B4A;" points="297.607,117.937 290.409,148.172 280.722,188.918 231.266,188.918 221.579,148.183 
	214.381,117.949 256,80.97 "/>
<polygon style="fill:#E84242;" points="297.607,117.937 290.409,148.172 256,117.6 221.579,148.183 214.381,117.949 212.536,81.001 
	256,80.97 300.846,85.134 "/>
<g>
	<polygon style="fill:#A0DBFD;" points="214.381,117.949 187.694,141.648 130.411,0 256,80.97 	"/>
	<polygon style="fill:#A0DBFD;" points="297.607,117.937 256,80.97 381.589,0 324.306,141.648 	"/>
</g>
<g>
</g>
<g>
</g>
<g>
</g>
<g>
</g>
<g>
</g>
<g>
</g>
<g>
</g>
<g>
</g>
<g>
</g>
<g>
</g>
<g>
</g>
<g>
</g>
<g>
</g>
<g>
</g>
<g>
</g>
</svg>
